<?xml version="1.0" encoding="utf-8"?><!-- Uploaded to: SVG Repo, www.svgrepo.com, Generator: SVG Repo Mixer Tools -->
<svg width="800px" height="800px" viewBox="0 0 128 128" fill="none" xmlns="http://www.w3.org/2000/svg">
<path fill-rule="evenodd" clip-rule="evenodd" d="M59 17.5C46.6458 17.5 36.5 29.2863 36.5 44C36.5 58.7137 46.6458 70.5 59 70.5C71.3542 70.5 81.5 58.7137 81.5 44C81.5 29.2863 71.3542 17.5 59 17.5ZM35.5 44C35.5 28.8904 45.9491 16.5 59 16.5C72.0509 16.5 82.5 28.8904 82.5 44C82.5 59.1096 72.0509 71.5 59 71.5C45.9491 71.5 35.5 59.1096 35.5 44Z" fill="#ffffff"/>
<path fill-rule="evenodd" clip-rule="evenodd" d="M84.7132 7.59047C84.8467 7.4969 85.0176 7.47437 85.1709 7.53011L96.1709 11.5301C96.3685 11.602 96.5 11.7897 96.5 12V116C96.5 116.21 96.3685 116.398 96.1709 116.47L85.1709 120.47C85.0176 120.526 84.8467 120.503 84.7132 120.41C84.5796 120.316 84.5 120.163 84.5 120V8C84.5 7.8369 84.5796 7.68404 84.7132 7.59047ZM85.5 8.71385V119.286L95.5 115.65V12.3502L85.5 8.71385Z" fill="#ffffff"/>
<path fill-rule="evenodd" clip-rule="evenodd" d="M85.3395 7.63289C85.4418 7.72753 85.5 7.8606 85.5 8V120C85.5 120.141 85.4404 120.276 85.3359 120.37C85.2313 120.465 85.0916 120.511 84.9512 120.498L33.9512 115.498C33.6952 115.473 33.5 115.257 33.5 115V12C33.5 11.739 33.7007 11.5219 33.9609 11.5015L84.9609 7.50153C85.0999 7.49063 85.2371 7.53825 85.3395 7.63289ZM34.5 12.4623V114.547L84.5 119.449V8.54075L34.5 12.4623Z" fill="#ffffff"/>
<path fill-rule="evenodd" clip-rule="evenodd" d="M87.7401 15.8094C87.6007 16.0883 87.5 16.5085 87.5 17C87.5 17.4915 87.6007 17.9117 87.7401 18.1906C87.8098 18.3299 87.8798 18.4155 87.9337 18.4611C87.9595 18.4829 87.978 18.4926 87.9878 18.4966C87.9927 18.4986 87.9958 18.4994 87.9973 18.4997C87.9987 18.5 87.9995 18.5 88 18.5C88.0005 18.5 88.0013 18.5 88.0027 18.4997C88.0042 18.4994 88.0073 18.4986 88.0122 18.4966C88.022 18.4926 88.0405 18.4829 88.0663 18.4611C88.1202 18.4155 88.1902 18.3299 88.2599 18.1906C88.3993 17.9117 88.5 17.4915 88.5 17C88.5 16.5085 88.3993 16.0883 88.2599 15.8094C88.1902 15.6701 88.1202 15.5845 88.0663 15.5389C88.0405 15.5171 88.022 15.5074 88.0122 15.5034C88.0073 15.5014 88.0042 15.5006 88.0027 15.5003C88.0013 15.5 88.0005 15.5 88 15.5C87.9995 15.5 87.9987 15.5 87.9973 15.5003C87.9958 15.5006 87.9927 15.5014 87.9878 15.5034C87.978 15.5074 87.9595 15.5171 87.9337 15.5389C87.8798 15.5845 87.8098 15.6701 87.7401 15.8094ZM86.8457 15.3622C87.0532 14.9471 87.4324 14.5 88 14.5C88.5676 14.5 88.9468 14.9471 89.1543 15.3622C89.3768 15.8072 89.5 16.3869 89.5 17C89.5 17.6131 89.3768 18.1928 89.1543 18.6378C88.9468 19.0529 88.5676 19.5 88 19.5C87.4324 19.5 87.0532 19.0529 86.8457 18.6378C86.6232 18.1928 86.5 17.6131 86.5 17C86.5 16.3869 86.6232 15.8072 86.8457 15.3622Z" fill="#ffffff"/>
<path fill-rule="evenodd" clip-rule="evenodd" d="M93 105.5C93.2761 105.5 93.5 105.724 93.5 106V112C93.5 112.276 93.2761 112.5 93 112.5C92.7239 112.5 92.5 112.276 92.5 112V106C92.5 105.724 92.7239 105.5 93 105.5Z" fill="#ffffff"/>
<path fill-rule="evenodd" clip-rule="evenodd" d="M93 99.5C93.2761 99.5 93.5 99.7239 93.5 100V102C93.5 102.276 93.2761 102.5 93 102.5C92.7239 102.5 92.5 102.276 92.5 102V100C92.5 99.7239 92.7239 99.5 93 99.5Z" fill="#ffffff"/>
</svg>